<?xml version="1.0" encoding="utf-8"?>
<!-- Generator: Adobe Illustrator 16.0.0, SVG Export Plug-In . SVG Version: 6.00 Build 0)  -->
<!DOCTYPE svg PUBLIC "-//W3C//DTD SVG 1.1//EN" "http://www.w3.org/Graphics/SVG/1.1/DTD/svg11.dtd">
<svg version="1.1" id="Capa_1" xmlns="http://www.w3.org/2000/svg" xmlns:xlink="http://www.w3.org/1999/xlink" x="0px" y="0px"
	 width="309.156px" height="73.344px" viewBox="0 0 309.156 73.344" enable-background="new 0 0 309.156 73.344"
	 xml:space="preserve">
<g>
	<g>
		<path fill="#FFFFFF" d="M62.993,72.532c-2.629,0-4.874-0.454-6.672-1.348c-1.882-0.929-2.909-2.761-3.052-5.445
			c-0.403-7.177-0.659-13.822-0.76-19.748c-0.092-5.295-0.233-9.965-0.421-13.898c-0.66,2.466-1.588,5.545-2.766,9.169
			c-1.25,3.835-2.778,8.805-4.673,15.194c-0.021,0.07-0.062,0.133-0.117,0.18c-0.913,0.771-2.102,1.389-3.534,1.838
			c-1.412,0.443-3.074,0.668-4.941,0.668c-2.483,0-4.563-0.312-6.183-0.927c-1.702-0.647-2.822-1.779-3.327-3.365
			c-1.802-5.61-3.375-10.436-4.675-14.341c-1.101-3.291-1.997-6.275-2.666-8.885c-0.182,3.563-0.322,6.919-0.415,9.987
			c-0.102,3.192-0.17,6.391-0.204,9.506c-0.038,3.168-0.107,6.323-0.206,9.376c-0.104,3.175-0.258,6.699-0.457,10.473
			c-0.008,0.146-0.101,0.275-0.238,0.329c-0.887,0.348-2.042,0.636-3.528,0.879c-1.397,0.236-2.856,0.355-4.334,0.355
			c-3.037,0-5.44-0.488-7.144-1.451C0.902,70.069,0,68.232,0,65.62l2.944-51.377c0.004-0.063,0.023-0.124,0.057-0.178
			c0.587-0.937,1.798-1.9,3.703-2.948c1.866-1.029,4.525-1.551,7.903-1.551c3.632,0,6.531,0.573,8.616,1.704
			c2.096,1.14,3.657,3.017,4.642,5.58c0.654,1.736,1.323,3.604,1.988,5.552c0.713,2.087,1.421,4.233,2.137,6.448
			c0.709,2.215,1.403,4.42,2.082,6.602l1.725,5.551c1.525-5.282,3.132-10.671,4.779-16.025c1.668-5.398,3.133-9.735,4.479-13.259
			c0.032-0.085,0.095-0.156,0.175-0.198c1.047-0.551,2.357-1.006,4.006-1.393c1.588-0.373,3.412-0.563,5.422-0.563
			c3.354,0,6.142,0.503,8.288,1.496c2.209,1.016,3.51,2.513,3.868,4.45c0.279,1.371,0.572,3.463,0.87,6.212
			c0.308,2.789,0.625,5.928,0.963,9.418c0.346,3.499,0.68,7.186,1.024,11.081l0.962,11.231c0.279,3.25,0.535,6.571,0.76,9.871
			c0.203,2.878,0.34,5.204,0.408,6.911c0.006,0.139-0.066,0.27-0.186,0.339c-1.18,0.685-2.426,1.189-3.704,1.498
			C66.636,72.382,65.027,72.532,62.993,72.532z"/>
		<path d="M54.659,9.941c3.318,0,6.027,0.488,8.131,1.461c2.098,0.965,3.32,2.357,3.656,4.178c0.272,1.339,0.564,3.403,0.865,6.185
			c0.308,2.788,0.625,5.926,0.963,9.414c0.346,3.498,0.68,7.184,1.023,11.078c0.33,3.895,0.654,7.636,0.962,11.229
			c0.308,3.587,0.556,6.881,0.76,9.864c0.21,2.986,0.343,5.287,0.407,6.9c-1.152,0.669-2.354,1.155-3.604,1.457
			c-1.256,0.305-2.865,0.449-4.83,0.449c-2.579,0-4.742-0.432-6.505-1.309c-1.765-0.871-2.709-2.584-2.845-5.129
			c-0.411-7.316-0.66-13.896-0.76-19.734c-0.102-5.85-0.26-10.738-0.46-14.7h-0.511c-0.676,2.612-1.662,5.905-2.947,9.862
			c-1.291,3.961-2.846,9.031-4.676,15.203c-0.881,0.744-2.014,1.331-3.404,1.767c-1.395,0.438-3.003,0.651-4.829,0.651
			c-2.439,0-4.46-0.299-6.049-0.902c-1.598-0.607-2.63-1.646-3.103-3.128c-1.896-5.899-3.458-10.685-4.677-14.346
			c-1.223-3.653-2.169-6.858-2.846-9.607h-0.507c-0.208,3.96-0.359,7.563-0.458,10.816c-0.104,3.255-0.17,6.425-0.204,9.514
			c-0.037,3.087-0.104,6.213-0.206,9.368c-0.103,3.152-0.254,6.639-0.457,10.465c-0.879,0.345-2.035,0.626-3.452,0.858
			c-1.423,0.24-2.85,0.351-4.273,0.351c-2.977,0-5.301-0.465-6.959-1.402C1.2,69.808,0.375,68.103,0.375,65.62l2.944-51.355
			c0.543-0.866,1.729-1.809,3.565-2.818c1.822-1.005,4.397-1.505,7.723-1.505c3.586,0,6.398,0.553,8.437,1.658
			c2.033,1.105,3.519,2.908,4.471,5.385c0.607,1.612,1.272,3.457,1.983,5.539c0.712,2.085,1.42,4.229,2.135,6.442
			c0.709,2.213,1.402,4.417,2.081,6.598c0.676,2.184,1.288,4.146,1.831,5.893h0.512c1.625-5.638,3.257-11.099,4.878-16.367
			c1.627-5.265,3.113-9.681,4.471-13.235c1.019-0.536,2.324-0.986,3.917-1.359C50.913,10.12,52.69,9.941,54.659,9.941 M54.659,9.191
			c-2.039,0-3.893,0.193-5.509,0.573c-1.68,0.394-3.02,0.86-4.094,1.426c-0.162,0.085-0.287,0.226-0.352,0.396
			c-1.348,3.531-2.816,7.875-4.487,13.281c-1.523,4.952-3.012,9.933-4.434,14.833c-0.417-1.34-0.869-2.792-1.354-4.358
			c-0.68-2.184-1.373-4.39-2.083-6.605c-0.781-2.416-1.481-4.527-2.14-6.456c-0.667-1.952-1.337-3.823-1.992-5.561
			c-1.02-2.653-2.639-4.596-4.814-5.779c-2.141-1.161-5.1-1.75-8.795-1.75c-3.442,0-6.163,0.538-8.085,1.598
			c-1.961,1.078-3.217,2.085-3.838,3.077c-0.067,0.107-0.106,0.229-0.113,0.355l-2.944,51.355c-0.001,2.8,0.964,4.747,2.869,5.83
			c1.762,0.996,4.228,1.5,7.33,1.5c1.499,0,2.979-0.122,4.398-0.361c1.509-0.248,2.688-0.542,3.601-0.9
			c0.274-0.107,0.459-0.365,0.475-0.659c0.199-3.776,0.354-7.302,0.457-10.48c0.099-3.056,0.168-6.213,0.207-9.384
			c0.033-3.114,0.102-6.31,0.203-9.499c0.072-2.375,0.172-4.923,0.298-7.605c0.573,2.029,1.259,4.24,2.052,6.61
			c1.299,3.903,2.872,8.727,4.674,14.337c0.541,1.698,1.735,2.91,3.55,3.6c1.662,0.631,3.787,0.951,6.316,0.951
			c1.906,0,3.606-0.231,5.054-0.686c1.479-0.463,2.712-1.106,3.663-1.909c0.112-0.094,0.193-0.219,0.235-0.359
			c1.894-6.387,3.421-11.353,4.669-15.184c0.842-2.591,1.557-4.905,2.138-6.917c0.137,3.398,0.243,7.263,0.317,11.536
			c0.102,5.93,0.357,12.58,0.761,19.763c0.151,2.827,1.249,4.766,3.262,5.759c1.848,0.919,4.149,1.386,6.837,1.386
			c2.064,0,3.702-0.154,5.007-0.47c1.312-0.317,2.592-0.834,3.803-1.538c0.241-0.14,0.384-0.4,0.373-0.678
			c-0.068-1.711-0.206-4.04-0.409-6.923c-0.226-3.299-0.481-6.623-0.761-9.875l-0.327-3.81c-0.208-2.409-0.42-4.881-0.635-7.419
			c-0.295-3.346-0.647-7.278-1.024-11.088c-0.373-3.841-0.679-6.836-0.964-9.422c-0.298-2.759-0.593-4.863-0.876-6.252
			c-0.378-2.05-1.751-3.64-4.078-4.709C60.909,9.706,58.067,9.191,54.659,9.191L54.659,9.191z"/>
	</g>
	<g>
		<path fill="#FFFFFF" d="M107.108,73.344c-4.007,0-7.792-0.566-11.248-1.683c-3.463-1.125-6.515-2.827-9.073-5.057
			c-2.566-2.238-4.618-5.096-6.097-8.492c-1.47-3.381-2.216-7.394-2.216-11.927c0-4.468,0.747-8.366,2.219-11.584
			c1.484-3.232,3.449-5.918,5.839-7.984c2.402-2.067,5.183-3.616,8.265-4.603c3.08-0.981,6.266-1.478,9.47-1.478
			c3.607,0,6.949,0.55,9.935,1.636c2.983,1.087,5.589,2.602,7.745,4.502c2.168,1.909,3.876,4.223,5.078,6.876
			c1.199,2.66,1.808,5.589,1.808,8.708c0,2.38-0.688,4.233-2.045,5.508c-1.341,1.254-3.222,2.067-5.589,2.418l-24.656,3.653
			c0.753,1.9,2.173,3.361,4.226,4.347c2.245,1.079,4.858,1.626,7.767,1.626c2.722,0,5.338-0.351,7.776-1.043
			c2.431-0.7,4.437-1.517,5.96-2.43c0.06-0.036,0.126-0.053,0.193-0.053c0.069,0,0.138,0.019,0.198,0.057
			c1.119,0.698,2.083,1.686,2.866,2.936c0.777,1.272,1.17,2.627,1.17,4.029c0,3.155-1.505,5.537-4.474,7.079
			c-2.179,1.148-4.681,1.942-7.434,2.356C111.994,73.146,109.482,73.344,107.108,73.344z M104.455,32.648
			c-1.982,0-3.709,0.329-5.133,0.977c-1.436,0.653-2.616,1.493-3.508,2.495c-0.89,0.998-1.573,2.146-2.031,3.41
			c-0.401,1.123-0.66,2.268-0.771,3.409l20.95-3.398c-0.318-1.479-1.204-2.987-2.637-4.486
			C109.795,33.458,107.484,32.648,104.455,32.648z"/>
		<path d="M104.267,20.91c3.586,0,6.86,0.542,9.807,1.613c2.949,1.075,5.491,2.551,7.625,4.431c2.133,1.878,3.797,4.127,4.984,6.75
			c1.18,2.615,1.774,5.471,1.774,8.553c0,2.283-0.642,4.027-1.927,5.234c-1.295,1.211-3.09,1.98-5.387,2.32l-25.111,3.721
			c0.74,2.217,2.266,3.881,4.573,4.988c2.3,1.105,4.945,1.663,7.929,1.663c2.777,0,5.402-0.354,7.879-1.058
			c2.477-0.713,4.488-1.533,6.051-2.469c1.076,0.671,1.993,1.613,2.746,2.816c0.738,1.209,1.113,2.484,1.113,3.83
			c0,3.018-1.426,5.268-4.271,6.746c-2.167,1.143-4.604,1.91-7.316,2.318c-2.711,0.395-5.248,0.601-7.627,0.601
			c-3.997,0-7.709-0.559-11.133-1.665c-3.42-1.111-6.4-2.767-8.941-4.982s-4.537-5-6-8.359c-1.459-3.354-2.185-7.281-2.185-11.777
			c0-4.436,0.726-8.238,2.185-11.429c1.463-3.186,3.368-5.804,5.743-7.856c2.372-2.041,5.085-3.553,8.134-4.529
			C97.96,21.399,101.079,20.91,104.267,20.91 M92.601,43.387l21.8-3.536c-0.257-1.684-1.192-3.368-2.804-5.055
			c-1.613-1.684-3.997-2.522-7.142-2.522c-2.036,0-3.8,0.333-5.288,1.011c-1.489,0.678-2.698,1.537-3.633,2.587
			c-0.939,1.054-1.633,2.231-2.104,3.532C92.965,40.708,92.685,42.034,92.601,43.387 M104.267,20.16
			c-3.242,0-6.467,0.503-9.583,1.495c-3.131,1.003-5.955,2.576-8.396,4.676c-2.432,2.102-4.429,4.831-5.936,8.112
			c-1.495,3.27-2.253,7.22-2.253,11.742c0,4.585,0.756,8.648,2.247,12.077c1.501,3.448,3.585,6.35,6.194,8.625
			c2.596,2.263,5.692,3.989,9.203,5.13c3.495,1.129,7.318,1.702,11.365,1.702c2.392,0,4.922-0.199,7.735-0.608
			c2.798-0.421,5.34-1.228,7.558-2.397c3.099-1.61,4.672-4.104,4.672-7.41c0-1.472-0.412-2.892-1.223-4.221
			c-0.817-1.306-1.822-2.334-2.989-3.062c-0.122-0.076-0.259-0.114-0.397-0.114c-0.133,0-0.267,0.036-0.385,0.106
			c-1.496,0.896-3.472,1.7-5.873,2.392c-2.402,0.682-4.984,1.028-7.671,1.028c-2.852,0-5.41-0.535-7.604-1.589
			c-1.832-0.879-3.099-2.098-3.852-3.709l24.175-3.582c2.444-0.361,4.392-1.208,5.789-2.514c1.437-1.35,2.165-3.294,2.165-5.782
			c0-3.172-0.619-6.153-1.841-8.861c-1.224-2.704-2.964-5.06-5.172-7.004c-2.191-1.931-4.837-3.469-7.864-4.572
			C111.303,20.718,107.917,20.16,104.267,20.16L104.267,20.16z M93.442,42.49c0.128-0.95,0.361-1.899,0.695-2.835
			c0.44-1.216,1.099-2.323,1.957-3.285c0.858-0.963,1.996-1.772,3.384-2.403c1.375-0.626,3.049-0.943,4.978-0.943
			c2.922,0,5.143,0.771,6.6,2.292c1.258,1.317,2.078,2.633,2.445,3.922L93.442,42.49L93.442,42.49z"/>
	</g>
	<g>
		<path fill="#FFFFFF" d="M156.005,73.344c-2.334,0-4.917-0.204-7.677-0.604c-2.745-0.413-5.249-1.207-7.444-2.357
			c-2.962-1.543-4.465-3.925-4.465-7.078c0-1.413,0.395-2.768,1.173-4.027c0.782-1.258,1.748-2.246,2.87-2.938
			c0.06-0.037,0.128-0.056,0.197-0.056c0.067,0,0.134,0.018,0.193,0.054c1.511,0.909,3.516,1.727,5.957,2.43
			c2.432,0.692,5.048,1.043,7.775,1.043c2.904,0,5.518-0.547,7.768-1.626c2.051-0.986,3.469-2.447,4.223-4.347l-24.651-3.653
			c-2.375-0.351-4.257-1.164-5.596-2.417c-1.359-1.278-2.048-3.131-2.048-5.508c0-3.107,0.612-6.037,1.818-8.707
			c1.197-2.652,2.902-4.965,5.07-6.877c2.171-1.904,4.777-3.419,7.749-4.502c2.988-1.085,6.332-1.636,9.939-1.636
			c3.195,0,6.38,0.497,9.465,1.478c3.082,0.988,5.862,2.536,8.263,4.603c2.411,2.088,4.376,4.774,5.838,7.985
			c1.476,3.221,2.224,7.119,2.224,11.584c0,4.531-0.747,8.544-2.221,11.927c-1.463,3.386-3.513,6.244-6.094,8.492
			c-2.554,2.229-5.607,3.93-9.074,5.056C163.803,72.777,160.018,73.344,156.005,73.344z M170.104,43.115
			c-0.111-1.19-0.37-2.376-0.771-3.532c-0.445-1.289-1.13-2.477-2.036-3.531c-0.886-1.036-2.066-1.902-3.508-2.575
			c-1.424-0.671-3.148-1.011-5.129-1.011c-3.019,0-5.328,0.837-6.864,2.487c-1.441,1.547-2.33,3.112-2.647,4.655L170.104,43.115z"/>
		<path d="M158.856,20.91c3.184,0,6.297,0.489,9.352,1.46c3.047,0.977,5.76,2.488,8.131,4.529c2.371,2.053,4.291,4.671,5.742,7.856
			c1.461,3.19,2.189,6.993,2.189,11.429c0,4.496-0.729,8.423-2.189,11.777c-1.451,3.359-3.453,6.144-5.996,8.359
			c-2.539,2.216-5.522,3.871-8.944,4.982c-3.421,1.106-7.134,1.665-11.136,1.665c-2.366,0-4.908-0.206-7.623-0.601
			c-2.711-0.408-5.145-1.176-7.323-2.318c-2.838-1.479-4.265-3.729-4.265-6.746c0-1.346,0.37-2.621,1.117-3.83
			c0.748-1.203,1.66-2.146,2.748-2.816c1.555,0.936,3.57,1.756,6.047,2.469c2.471,0.703,5.1,1.058,7.879,1.058
			c2.982,0,5.625-0.558,7.93-1.663c2.303-1.107,3.829-2.771,4.57-4.988l-25.105-3.721c-2.302-0.34-4.102-1.109-5.395-2.32
			c-1.284-1.207-1.93-2.951-1.93-5.234c0-3.082,0.604-5.938,1.785-8.553c1.184-2.623,2.847-4.872,4.977-6.75
			c2.143-1.88,4.679-3.355,7.629-4.431C151.994,21.452,155.266,20.91,158.856,20.91 M170.515,43.563
			c-0.084-1.39-0.359-2.757-0.826-4.104c-0.467-1.352-1.172-2.565-2.106-3.652c-0.929-1.086-2.147-1.977-3.634-2.67
			c-1.483-0.699-3.249-1.046-5.287-1.046c-3.147,0-5.523,0.871-7.139,2.606c-1.617,1.736-2.551,3.477-2.808,5.218L170.515,43.563
			 M158.856,20.16c-3.651,0-7.038,0.558-10.067,1.658c-3.016,1.099-5.662,2.637-7.867,4.572c-2.209,1.948-3.947,4.305-5.166,7.005
			c-1.229,2.719-1.852,5.701-1.852,8.861c0,2.485,0.729,4.43,2.166,5.781c1.396,1.308,3.347,2.154,5.799,2.516l24.169,3.582
			c-0.754,1.611-2.021,2.83-3.85,3.709c-2.198,1.054-4.757,1.589-7.604,1.589c-2.692,0-5.274-0.346-7.674-1.029
			c-2.408-0.693-4.382-1.498-5.865-2.39c-0.119-0.072-0.253-0.107-0.387-0.107c-0.137,0-0.273,0.037-0.394,0.112
			c-1.173,0.723-2.179,1.752-2.991,3.059c-0.817,1.322-1.23,2.743-1.23,4.226c0,3.304,1.571,5.797,4.668,7.411
			c2.23,1.169,4.774,1.976,7.558,2.395c2.782,0.404,5.383,0.609,7.735,0.609c4.052,0,7.876-0.572,11.366-1.702
			c3.517-1.142,6.614-2.868,9.207-5.131c2.622-2.285,4.706-5.188,6.191-8.627c1.493-3.429,2.251-7.492,2.251-12.075
			c0-4.52-0.76-8.47-2.258-11.741c-1.484-3.259-3.48-5.988-5.933-8.111c-2.44-2.101-5.264-3.674-8.394-4.677
			C165.313,20.663,162.09,20.16,158.856,20.16L158.856,20.16z M149.607,39.305c0.364-1.353,1.19-2.727,2.464-4.095
			c1.462-1.571,3.68-2.368,6.59-2.368c1.925,0,3.596,0.328,4.968,0.974c1.396,0.651,2.533,1.485,3.383,2.479
			c0.877,1.02,1.538,2.166,1.968,3.41c0.336,0.97,0.57,1.961,0.697,2.958L149.607,39.305L149.607,39.305z"/>
	</g>
	<g>
		<path fill="#FFFFFF" d="M211.411,73.244c-6.024,0-10.742-1.386-14.021-4.119c-3.292-2.744-4.961-7.245-4.961-13.376V12.652
			c0-0.17,0.115-0.319,0.279-0.363c0.807-0.212,1.896-0.432,3.239-0.654c1.371-0.241,2.839-0.358,4.483-0.358
			c3.043,0,5.452,0.544,7.162,1.618c1.769,1.11,2.665,3.434,2.665,6.906v6.074h12.944c0.137,0,0.263,0.075,0.329,0.195
			c0.422,0.771,0.823,1.722,1.194,2.829c0.384,1.143,0.578,2.418,0.578,3.791c0,2.448-0.566,4.25-1.685,5.357
			c-1.124,1.106-2.634,1.666-4.487,1.666h-8.874v14.828c0,1.619,0.493,2.736,1.507,3.417c1.058,0.692,2.58,1.044,4.521,1.044
			c0.983,0,1.996-0.081,3.096-0.248c1.052-0.167,1.99-0.383,2.787-0.642c0.038-0.013,0.077-0.019,0.116-0.019
			c0.109,0,0.216,0.048,0.288,0.135c0.623,0.749,1.17,1.605,1.627,2.545c0.464,0.953,0.698,2.107,0.698,3.429
			c0,2.654-1.021,4.852-3.033,6.53C219.87,72.399,216.353,73.244,211.411,73.244z"/>
		<path d="M200.431,11.652c2.979,0,5.299,0.516,6.963,1.561c1.657,1.041,2.489,3.236,2.489,6.589v6.449h13.319
			c0.404,0.738,0.797,1.66,1.168,2.768c0.371,1.105,0.559,2.336,0.559,3.672c0,2.35-0.521,4.049-1.573,5.091
			c-1.054,1.036-2.461,1.558-4.224,1.558h-9.249v15.203c0,1.744,0.562,2.982,1.673,3.729c1.123,0.734,2.696,1.107,4.729,1.107
			c1.024,0,2.069-0.088,3.152-0.252c1.085-0.172,2.03-0.391,2.847-0.656c0.612,0.736,1.135,1.558,1.578,2.47
			c0.438,0.9,0.66,1.992,0.66,3.265c0,2.557-0.969,4.633-2.898,6.242c-1.931,1.612-5.339,2.423-10.213,2.423
			c-5.972,0-10.561-1.348-13.781-4.032c-3.216-2.681-4.826-7.046-4.826-13.088V12.652c0.747-0.196,1.811-0.416,3.205-0.646
			C197.397,11.762,198.87,11.652,200.431,11.652 M200.431,10.902c-1.666,0-3.155,0.119-4.552,0.365
			c-1.347,0.223-2.448,0.445-3.266,0.66c-0.33,0.087-0.56,0.385-0.56,0.726v43.097c0,6.248,1.715,10.845,5.096,13.664
			c3.349,2.791,8.146,4.206,14.262,4.206c5.103,0,8.601-0.85,10.693-2.597c2.103-1.753,3.168-4.047,3.168-6.818
			c0-1.379-0.247-2.588-0.735-3.592c-0.471-0.968-1.034-1.85-1.677-2.622c-0.145-0.174-0.357-0.271-0.576-0.271
			c-0.077,0-0.156,0.012-0.232,0.037c-0.778,0.253-1.697,0.465-2.731,0.629c-1.077,0.163-2.071,0.243-3.035,0.243
			c-1.866,0-3.319-0.332-4.319-0.985c-0.895-0.601-1.333-1.616-1.333-3.101V40.089h8.499c1.955,0,3.553-0.597,4.749-1.773
			c1.193-1.182,1.798-3.074,1.798-5.625c0-1.414-0.201-2.729-0.598-3.911c-0.378-1.127-0.788-2.099-1.221-2.889
			c-0.132-0.24-0.384-0.39-0.658-0.39h-12.569v-5.699c0-3.609-0.956-6.04-2.841-7.224C206.022,11.466,203.545,10.902,200.431,10.902
			L200.431,10.902z"/>
	</g>
	<g>
		<path d="M232.776,8.914c0-2.507,0.852-4.62,2.549-6.336C237.021,0.863,239.271,0,242.071,0c2.802,0,5.052,0.863,6.751,2.578
			c1.701,1.716,2.548,3.829,2.548,6.336c0,2.509-0.847,4.621-2.548,6.337c-1.699,1.722-3.949,2.574-6.751,2.574
			c-2.801,0-5.051-0.853-6.746-2.574C233.628,13.535,232.776,11.423,232.776,8.914z M250.571,72.208
			c-0.734,0.131-1.813,0.311-3.248,0.549c-1.437,0.225-2.883,0.346-4.352,0.346c-1.462,0-2.782-0.102-3.949-0.303
			c-1.164-0.195-2.149-0.592-2.943-1.182c-0.803-0.602-1.421-1.404-1.856-2.426c-0.433-1.03-0.647-2.358-0.647-4.013V24.879
			c0.731-0.128,1.816-0.312,3.25-0.55c1.434-0.226,2.884-0.34,4.35-0.34c1.463,0,2.779,0.096,3.949,0.298
			c1.164,0.191,2.146,0.592,2.949,1.183c0.803,0.6,1.414,1.404,1.848,2.426c0.434,1.029,0.65,2.363,0.65,4.013V72.208z"/>
	</g>
	<g>
		<path d="M292.164,40.851c0-2.036-0.586-3.537-1.753-4.498c-1.17-0.959-2.748-1.436-4.748-1.436c-1.335,0-2.649,0.164-3.949,0.495
			c-1.304,0.335-2.413,0.827-3.351,1.485v34.365c-0.667,0.19-1.713,0.394-3.144,0.59c-1.437,0.195-2.92,0.297-4.457,0.297
			c-1.463,0-2.783-0.102-3.944-0.297c-1.17-0.196-2.151-0.59-2.949-1.193c-0.8-0.592-1.42-1.395-1.851-2.429
			c-0.434-1.019-0.654-2.356-0.654-4.003V34.521c0-1.778,0.385-3.235,1.15-4.357c0.769-1.126,1.816-2.144,3.155-3.066
			c2.263-1.588,5.114-2.879,8.546-3.863c3.433-0.99,7.248-1.482,11.447-1.482c7.53,0,13.331,1.631,17.395,4.893
			c4.061,3.275,6.099,7.814,6.099,13.621v30.998c-0.668,0.19-1.722,0.394-3.149,0.59c-1.434,0.195-2.918,0.297-4.446,0.297
			c-1.471,0-2.786-0.102-3.952-0.297c-1.168-0.196-2.145-0.59-2.944-1.193c-0.806-0.592-1.42-1.395-1.851-2.429
			c-0.434-1.019-0.649-2.356-0.649-4.003V40.851z"/>
	</g>
</g>
</svg>
