<?xml version="1.0" encoding="utf-8"?>
<!-- Generator: Adobe Illustrator 16.0.0, SVG Export Plug-In . SVG Version: 6.00 Build 0)  -->
<!DOCTYPE svg PUBLIC "-//W3C//DTD SVG 1.1//EN" "http://www.w3.org/Graphics/SVG/1.1/DTD/svg11.dtd">
<svg version="1.1" id="Capa_1" xmlns="http://www.w3.org/2000/svg" xmlns:xlink="http://www.w3.org/1999/xlink" x="0px" y="0px"
	 width="309.531px" height="73.854px" viewBox="0 0 309.531 73.854" enable-background="new 0 0 309.531 73.854"
	 xml:space="preserve">
<g>
	<g>
		<path fill="#FFFFFF" d="M62.994,72.908c-2.628,0-4.874-0.453-6.672-1.347c-1.882-0.929-2.909-2.761-3.053-5.445
			c-0.404-7.198-0.66-13.842-0.759-19.748c-0.093-5.312-0.235-9.983-0.421-13.9c-0.663,2.479-1.592,5.56-2.766,9.171
			c-1.252,3.842-2.78,8.812-4.672,15.193c-0.021,0.07-0.062,0.133-0.117,0.18c-0.913,0.771-2.103,1.39-3.535,1.838
			c-1.414,0.444-3.077,0.669-4.941,0.669c-2.482,0-4.562-0.312-6.183-0.927c-1.702-0.647-2.821-1.779-3.327-3.365
			c-1.797-5.595-3.371-10.42-4.675-14.341c-1.102-3.293-1.997-6.277-2.666-8.885c-0.182,3.562-0.322,6.918-0.415,9.987
			c-0.102,3.191-0.17,6.39-0.204,9.506c-0.038,3.169-0.107,6.323-0.206,9.376c-0.104,3.177-0.258,6.701-0.457,10.474
			c-0.008,0.146-0.101,0.275-0.238,0.329c-0.888,0.348-2.042,0.635-3.528,0.879c-1.395,0.235-2.854,0.355-4.334,0.355
			c-3.037,0-5.44-0.488-7.144-1.451C0.902,70.446,0,68.609,0,65.997l2.944-51.378c0.004-0.063,0.023-0.124,0.057-0.178
			c0.587-0.937,1.798-1.9,3.703-2.948c1.865-1.029,4.524-1.551,7.903-1.551c3.633,0,6.532,0.573,8.616,1.704
			c2.096,1.14,3.658,3.018,4.642,5.581c0.654,1.736,1.323,3.604,1.988,5.552c0.713,2.086,1.421,4.233,2.137,6.448
			c0.709,2.214,1.403,4.42,2.082,6.602l1.725,5.551c1.524-5.279,3.132-10.669,4.779-16.025c1.672-5.409,3.137-9.746,4.479-13.26
			c0.032-0.085,0.095-0.156,0.176-0.198c1.047-0.55,2.358-1.006,4.006-1.393c1.589-0.373,3.413-0.562,5.422-0.562
			c3.354,0,6.143,0.503,8.289,1.496c2.208,1.016,3.51,2.513,3.868,4.449c0.279,1.375,0.572,3.467,0.869,6.214
			c0.308,2.789,0.625,5.928,0.963,9.418c0.345,3.499,0.679,7.186,1.024,11.082l0.961,11.23c0.281,3.28,0.537,6.602,0.76,9.871
			c0.203,2.876,0.34,5.202,0.408,6.912c0.006,0.139-0.066,0.27-0.187,0.339c-1.182,0.685-2.428,1.189-3.705,1.497
			C66.638,72.757,65.029,72.908,62.994,72.908z"/>
		<path fill="#666666" d="M54.659,10.316c3.319,0,6.028,0.489,8.131,1.461c2.098,0.965,3.32,2.357,3.657,4.177
			c0.272,1.34,0.564,3.405,0.865,6.186c0.308,2.788,0.625,5.926,0.963,9.414c0.345,3.499,0.679,7.184,1.023,11.079
			c0.33,3.895,0.653,7.635,0.961,11.229c0.308,3.587,0.556,6.881,0.76,9.864c0.21,2.987,0.343,5.287,0.408,6.901
			c-1.153,0.668-2.354,1.155-3.604,1.457c-1.255,0.305-2.865,0.449-4.829,0.449c-2.58,0-4.742-0.432-6.505-1.308
			c-1.765-0.871-2.709-2.584-2.845-5.129c-0.411-7.316-0.66-13.896-0.759-19.734c-0.103-5.85-0.26-10.738-0.46-14.701h-0.511
			c-0.676,2.612-1.661,5.906-2.947,9.863c-1.291,3.96-2.845,9.03-4.675,15.202c-0.881,0.744-2.014,1.332-3.405,1.767
			c-1.395,0.438-3.003,0.652-4.829,0.652c-2.439,0-4.46-0.299-6.049-0.902c-1.598-0.607-2.63-1.646-3.103-3.128
			c-1.896-5.899-3.458-10.684-4.677-14.346c-1.223-3.654-2.169-6.858-2.846-9.607h-0.507c-0.208,3.96-0.359,7.564-0.458,10.816
			c-0.104,3.254-0.17,6.425-0.204,9.514c-0.037,3.086-0.104,6.213-0.206,9.368c-0.103,3.152-0.254,6.64-0.457,10.466
			c-0.879,0.344-2.035,0.625-3.452,0.858c-1.423,0.24-2.85,0.35-4.273,0.35c-2.977,0-5.301-0.465-6.959-1.402
			c-1.666-0.946-2.491-2.652-2.491-5.134L3.319,14.64c0.543-0.866,1.729-1.809,3.565-2.818c1.822-1.005,4.397-1.505,7.723-1.505
			c3.586,0,6.398,0.552,8.437,1.658c2.033,1.106,3.519,2.908,4.471,5.386c0.607,1.612,1.272,3.457,1.983,5.539
			c0.712,2.084,1.42,4.229,2.135,6.442c0.709,2.212,1.402,4.417,2.081,6.598c0.676,2.184,1.288,4.146,1.831,5.893h0.512
			c1.625-5.638,3.257-11.099,4.878-16.368c1.627-5.264,3.113-9.682,4.47-13.236c1.019-0.536,2.324-0.986,3.917-1.359
			C50.914,10.495,52.69,10.316,54.659,10.316 M54.659,9.566c-2.038,0-3.891,0.192-5.508,0.572c-1.68,0.394-3.019,0.86-4.095,1.425
			c-0.162,0.085-0.287,0.226-0.352,0.396c-1.344,3.521-2.812,7.866-4.486,13.282c-1.524,4.954-3.013,9.936-4.435,14.833
			c-0.417-1.34-0.869-2.792-1.354-4.358c-0.68-2.184-1.373-4.391-2.083-6.605c-0.784-2.424-1.484-4.536-2.14-6.456
			c-0.666-1.952-1.336-3.823-1.991-5.561c-1.019-2.653-2.638-4.597-4.814-5.78c-2.14-1.161-5.099-1.75-8.795-1.75
			c-3.443,0-6.164,0.538-8.085,1.598c-1.961,1.078-3.217,2.085-3.838,3.077c-0.067,0.107-0.106,0.229-0.113,0.355l-2.944,51.357
			c-0.001,2.8,0.964,4.747,2.869,5.829c1.762,0.996,4.228,1.5,7.33,1.5c1.501,0,2.981-0.121,4.398-0.36
			c1.508-0.248,2.687-0.542,3.6-0.899c0.274-0.107,0.46-0.365,0.476-0.659c0.199-3.775,0.353-7.301,0.457-10.481
			c0.099-3.055,0.168-6.212,0.207-9.383c0.033-3.115,0.102-6.311,0.203-9.499c0.072-2.376,0.172-4.923,0.298-7.605
			c0.572,2.027,1.259,4.239,2.052,6.61c1.304,3.918,2.876,8.743,4.674,14.337c0.541,1.698,1.735,2.91,3.55,3.6
			c1.664,0.631,3.788,0.951,6.316,0.951c1.903,0,3.604-0.231,5.054-0.687c1.48-0.463,2.713-1.106,3.664-1.91
			c0.112-0.094,0.193-0.219,0.235-0.359c1.891-6.379,3.418-11.345,4.668-15.183c0.841-2.586,1.556-4.9,2.138-6.917
			c0.136,3.389,0.243,7.253,0.318,11.536c0.1,5.91,0.355,12.559,0.76,19.763c0.151,2.828,1.249,4.767,3.262,5.76
			c1.85,0.919,4.15,1.385,6.837,1.385c2.066,0,3.703-0.154,5.006-0.47c1.311-0.316,2.591-0.833,3.804-1.537
			c0.241-0.14,0.384-0.401,0.374-0.679c-0.068-1.714-0.206-4.043-0.409-6.924c-0.223-3.269-0.479-6.592-0.761-9.875l-0.263-3.067
			c-0.227-2.643-0.461-5.362-0.698-8.161c-0.298-3.369-0.653-7.319-1.024-11.089c-0.37-3.818-0.677-6.812-0.964-9.422
			c-0.298-2.757-0.593-4.861-0.875-6.253c-0.379-2.05-1.752-3.639-4.078-4.709C60.909,10.082,58.067,9.566,54.659,9.566
			L54.659,9.566z"/>
	</g>
	<g>
		<path fill="#FFFFFF" d="M107.108,73.72c-4.008,0-7.792-0.566-11.248-1.683c-3.464-1.126-6.517-2.827-9.074-5.056
			c-2.567-2.239-4.618-5.096-6.097-8.492c-1.47-3.381-2.216-7.395-2.216-11.928c0-4.468,0.747-8.365,2.219-11.584
			c1.483-3.231,3.447-5.917,5.839-7.984c2.404-2.067,5.184-3.616,8.265-4.602c3.078-0.981,6.263-1.479,9.47-1.479
			c3.608,0,6.95,0.55,9.934,1.636c2.984,1.088,5.589,2.603,7.745,4.501c2.168,1.909,3.877,4.223,5.079,6.876
			c1.199,2.659,1.808,5.588,1.808,8.708c0,2.38-0.688,4.233-2.045,5.507c-1.341,1.255-3.221,2.068-5.588,2.418l-24.657,3.654
			c0.754,1.9,2.174,3.361,4.226,4.347c2.244,1.079,4.856,1.625,7.766,1.625c2.72,0,5.336-0.351,7.776-1.043
			c2.434-0.701,4.44-1.519,5.96-2.43c0.06-0.036,0.126-0.053,0.193-0.053c0.069,0,0.138,0.019,0.198,0.057
			c1.119,0.697,2.083,1.684,2.866,2.936c0.778,1.272,1.171,2.627,1.171,4.03c0,3.154-1.505,5.536-4.474,7.078
			c-2.181,1.149-4.683,1.942-7.434,2.356C111.992,73.522,109.479,73.72,107.108,73.72z M104.455,33.024
			c-1.981,0-3.708,0.329-5.133,0.977c-1.436,0.654-2.616,1.493-3.507,2.495c-0.891,0.999-1.575,2.146-2.032,3.411
			c-0.401,1.123-0.66,2.268-0.771,3.409l20.95-3.398c-0.318-1.479-1.204-2.987-2.637-4.488
			C109.796,33.834,107.484,33.024,104.455,33.024z"/>
		<path fill="#666666" d="M104.267,21.286c3.585,0,6.86,0.542,9.806,1.613c2.95,1.076,5.492,2.551,7.625,4.43
			c2.133,1.878,3.797,4.127,4.985,6.75c1.18,2.615,1.774,5.471,1.774,8.554c0,2.283-0.642,4.027-1.927,5.233
			c-1.294,1.211-3.089,1.981-5.386,2.32l-25.112,3.722c0.741,2.216,2.266,3.881,4.574,4.988c2.299,1.105,4.945,1.663,7.928,1.663
			c2.777,0,5.402-0.355,7.879-1.058c2.477-0.713,4.488-1.533,6.051-2.469c1.077,0.671,1.994,1.614,2.746,2.816
			c0.739,1.209,1.114,2.484,1.114,3.831c0,3.018-1.426,5.267-4.271,6.745c-2.167,1.143-4.605,1.911-7.317,2.318
			c-2.711,0.395-5.249,0.601-7.627,0.601c-3.997,0-7.709-0.559-11.132-1.665c-3.42-1.112-6.401-2.767-8.942-4.982
			c-2.541-2.216-4.537-5-6-8.359c-1.459-3.355-2.185-7.282-2.185-11.778c0-4.435,0.726-8.238,2.185-11.428
			c1.462-3.186,3.368-5.803,5.743-7.856c2.373-2.041,5.085-3.552,8.134-4.529C97.96,21.775,101.079,21.286,104.267,21.286
			 M92.601,43.763l21.8-3.536c-0.256-1.684-1.193-3.369-2.804-5.056c-1.612-1.683-3.997-2.522-7.141-2.522
			c-2.036,0-3.799,0.333-5.289,1.01c-1.489,0.678-2.698,1.537-3.632,2.587c-0.939,1.053-1.634,2.232-2.104,3.533
			C92.965,41.084,92.684,42.411,92.601,43.763 M104.267,20.536c-3.245,0-6.469,0.503-9.583,1.496
			c-3.129,1.002-5.954,2.575-8.396,4.674c-2.434,2.104-4.43,4.833-5.936,8.112c-1.495,3.27-2.253,7.22-2.253,11.741
			c0,4.586,0.756,8.649,2.247,12.078c1.501,3.448,3.585,6.35,6.194,8.625c2.595,2.262,5.692,3.988,9.204,5.13
			c3.494,1.129,7.317,1.702,11.364,1.702c2.39,0,4.919-0.199,7.735-0.609c2.797-0.42,5.338-1.227,7.559-2.397
			c3.099-1.61,4.672-4.103,4.672-7.409c0-1.473-0.412-2.894-1.225-4.222c-0.817-1.307-1.822-2.334-2.989-3.062
			c-0.121-0.076-0.259-0.113-0.396-0.113c-0.133,0-0.267,0.036-0.385,0.106c-1.493,0.895-3.469,1.699-5.873,2.392
			c-2.404,0.682-4.986,1.028-7.671,1.028c-2.853,0-5.411-0.535-7.603-1.588c-1.832-0.879-3.099-2.098-3.853-3.709l24.176-3.583
			c2.444-0.36,4.392-1.207,5.789-2.515c1.437-1.348,2.165-3.293,2.165-5.781c0-3.174-0.619-6.155-1.841-8.862
			c-1.224-2.703-2.964-5.06-5.173-7.004c-2.19-1.929-4.836-3.468-7.864-4.572C111.305,21.094,107.919,20.536,104.267,20.536
			L104.267,20.536z M93.442,42.866c0.128-0.949,0.361-1.898,0.695-2.834c0.44-1.217,1.099-2.323,1.958-3.286
			c0.857-0.963,1.995-1.772,3.383-2.404c1.376-0.625,3.051-0.943,4.978-0.943c2.923,0,5.144,0.771,6.6,2.291
			c1.259,1.318,2.079,2.635,2.445,3.923L93.442,42.866L93.442,42.866z"/>
	</g>
	<g>
		<path fill="#FFFFFF" d="M156.004,73.72c-2.332,0-4.915-0.204-7.676-0.605c-2.745-0.413-5.249-1.206-7.444-2.357
			c-2.962-1.543-4.465-3.924-4.465-7.077c0-1.414,0.395-2.769,1.173-4.028c0.781-1.257,1.747-2.245,2.87-2.938
			c0.06-0.037,0.128-0.056,0.197-0.056c0.067,0,0.134,0.018,0.193,0.054c1.509,0.908,3.513,1.726,5.957,2.43
			c2.434,0.692,5.05,1.043,7.775,1.043c2.906,0,5.52-0.547,7.769-1.625c2.05-0.986,3.468-2.447,4.223-4.347l-24.651-3.654
			c-2.375-0.35-4.258-1.163-5.596-2.418c-1.359-1.276-2.048-3.129-2.048-5.507c0-3.11,0.612-6.04,1.818-8.708
			c1.195-2.65,2.901-4.964,5.07-6.877c2.168-1.903,4.775-3.417,7.748-4.501c2.987-1.085,6.331-1.636,9.939-1.636
			c3.197,0,6.381,0.497,9.465,1.478c3.083,0.988,5.862,2.536,8.263,4.602c2.412,2.088,4.376,4.775,5.838,7.985
			c1.475,3.222,2.223,7.12,2.223,11.583c0,4.53-0.747,8.543-2.221,11.928c-1.463,3.385-3.513,6.243-6.093,8.492
			c-2.554,2.228-5.608,3.929-9.076,5.056C163.802,73.153,160.017,73.72,156.004,73.72z M170.104,43.491
			c-0.111-1.192-0.37-2.378-0.771-3.532c-0.446-1.29-1.131-2.478-2.036-3.531c-0.887-1.038-2.067-1.903-3.507-2.574
			c-1.423-0.671-3.148-1.011-5.13-1.011c-3.019,0-5.328,0.837-6.864,2.487c-1.441,1.548-2.331,3.112-2.647,4.654L170.104,43.491z"/>
		<path fill="#666666" d="M158.856,21.286c3.184,0,6.296,0.489,9.351,1.46c3.047,0.977,5.761,2.488,8.132,4.529
			c2.371,2.053,4.291,4.671,5.742,7.856c1.46,3.19,2.189,6.994,2.189,11.428c0,4.497-0.729,8.423-2.189,11.778
			c-1.451,3.359-3.453,6.143-5.996,8.359c-2.54,2.215-5.523,3.87-8.945,4.982c-3.421,1.106-7.134,1.665-11.136,1.665
			c-2.366,0-4.908-0.207-7.623-0.601c-2.711-0.408-5.145-1.176-7.323-2.318c-2.838-1.478-4.264-3.728-4.264-6.745
			c0-1.347,0.37-2.622,1.117-3.831c0.747-1.202,1.66-2.145,2.748-2.816c1.555,0.936,3.569,1.755,6.046,2.469
			c2.471,0.703,5.101,1.058,7.879,1.058c2.983,0,5.626-0.557,7.931-1.663c2.302-1.107,3.829-2.772,4.57-4.988l-25.105-3.722
			c-2.302-0.339-4.103-1.109-5.395-2.32c-1.285-1.207-1.93-2.951-1.93-5.233c0-3.083,0.603-5.938,1.785-8.554
			c1.183-2.623,2.846-4.872,4.977-6.75c2.142-1.879,4.678-3.354,7.628-4.43C151.994,21.828,155.266,21.286,158.856,21.286
			 M170.515,43.939c-0.084-1.39-0.359-2.757-0.827-4.104c-0.467-1.351-1.172-2.565-2.106-3.652
			c-0.929-1.086-2.147-1.977-3.633-2.669c-1.484-0.7-3.25-1.046-5.288-1.046c-3.147,0-5.523,0.871-7.139,2.607
			c-1.617,1.736-2.551,3.476-2.807,5.217L170.515,43.939 M158.856,20.536c-3.652,0-7.04,0.558-10.067,1.658
			c-3.017,1.101-5.664,2.638-7.866,4.572c-2.211,1.949-3.949,4.306-5.166,7.005c-1.229,2.716-1.852,5.698-1.852,8.862
			c0,2.485,0.729,4.43,2.166,5.78c1.396,1.308,3.347,2.154,5.799,2.516l24.168,3.583c-0.754,1.611-2.021,2.83-3.849,3.709
			c-2.197,1.054-4.756,1.588-7.605,1.588c-2.69,0-5.272-0.346-7.674-1.029c-2.41-0.694-4.383-1.499-5.864-2.39
			c-0.119-0.072-0.253-0.107-0.387-0.107c-0.137,0-0.273,0.037-0.394,0.112c-1.174,0.724-2.18,1.752-2.992,3.058
			c-0.816,1.321-1.23,2.742-1.23,4.227c0,3.304,1.57,5.797,4.667,7.41c2.231,1.17,4.774,1.976,7.559,2.395
			c2.783,0.404,5.384,0.609,7.734,0.609c4.051,0,7.876-0.572,11.367-1.702c3.517-1.143,6.614-2.869,9.207-5.13
			c2.623-2.286,4.706-5.189,6.191-8.627c1.493-3.431,2.251-7.494,2.251-12.076c0-4.518-0.76-8.468-2.257-11.74
			c-1.484-3.259-3.481-5.988-5.933-8.111c-2.44-2.1-5.264-3.673-8.394-4.676C165.315,21.04,162.092,20.536,158.856,20.536
			L158.856,20.536z M149.607,39.681c0.363-1.352,1.189-2.727,2.464-4.095c1.462-1.571,3.679-2.368,6.59-2.368
			c1.926,0,3.597,0.328,4.968,0.975c1.395,0.65,2.532,1.483,3.383,2.479c0.875,1.019,1.537,2.166,1.967,3.41
			c0.336,0.969,0.57,1.96,0.698,2.958L149.607,39.681L149.607,39.681z"/>
	</g>
	<g>
		<path fill="#FFFFFF" d="M211.412,73.62c-6.025,0-10.743-1.386-14.022-4.12c-3.292-2.744-4.96-7.244-4.96-13.375V13.028
			c0-0.17,0.115-0.319,0.279-0.363c0.799-0.21,1.889-0.43,3.239-0.654c1.374-0.241,2.841-0.358,4.483-0.358
			c3.042,0,5.452,0.544,7.162,1.618c1.769,1.111,2.666,3.435,2.666,6.908v6.073h12.945c0.137,0,0.263,0.075,0.329,0.195
			c0.423,0.774,0.825,1.726,1.193,2.83c0.384,1.141,0.579,2.416,0.579,3.791c0,2.446-0.566,4.249-1.684,5.356
			c-1.124,1.106-2.634,1.667-4.488,1.667h-8.874v14.829c0,1.618,0.493,2.736,1.507,3.417c1.058,0.692,2.58,1.044,4.52,1.044
			c0.985,0,1.998-0.081,3.096-0.248c1.049-0.167,1.988-0.383,2.787-0.642c0.038-0.013,0.077-0.019,0.116-0.019
			c0.109,0,0.216,0.048,0.288,0.135c0.624,0.749,1.171,1.605,1.628,2.545c0.463,0.952,0.698,2.105,0.698,3.429
			c0,2.654-1.021,4.851-3.034,6.531C219.87,72.776,216.353,73.62,211.412,73.62z"/>
		<path fill="#666666" d="M200.431,12.027c2.979,0,5.299,0.516,6.962,1.561c1.658,1.042,2.49,3.236,2.49,6.59v6.448h13.32
			c0.404,0.738,0.797,1.661,1.167,2.768c0.372,1.106,0.559,2.336,0.559,3.672c0,2.35-0.522,4.048-1.573,5.09
			c-1.053,1.037-2.461,1.558-4.224,1.558h-9.249v15.204c0,1.744,0.562,2.982,1.673,3.729c1.123,0.734,2.696,1.107,4.729,1.107
			c1.024,0,2.07-0.088,3.152-0.252c1.085-0.172,2.031-0.391,2.846-0.656c0.613,0.737,1.135,1.558,1.579,2.47
			c0.438,0.9,0.66,1.992,0.66,3.265c0,2.556-0.969,4.632-2.899,6.243c-1.93,1.612-5.338,2.422-10.212,2.422
			c-5.972,0-10.562-1.348-13.782-4.033c-3.215-2.68-4.826-7.045-4.826-13.087V13.028c0.747-0.197,1.811-0.416,3.205-0.647
			C197.397,12.137,198.871,12.027,200.431,12.027 M200.431,11.277c-1.664,0-3.153,0.119-4.552,0.365
			c-1.355,0.225-2.457,0.447-3.266,0.661c-0.33,0.086-0.559,0.384-0.559,0.725v43.097c0,6.248,1.714,10.845,5.096,13.664
			c3.348,2.791,8.146,4.207,14.262,4.207c5.103,0,8.6-0.85,10.693-2.597c2.102-1.754,3.168-4.048,3.168-6.818
			c0-1.38-0.248-2.589-0.736-3.593c-0.47-0.967-1.034-1.849-1.676-2.621c-0.145-0.174-0.358-0.271-0.577-0.271
			c-0.078,0-0.156,0.012-0.232,0.037c-0.78,0.254-1.699,0.465-2.731,0.629c-1.075,0.164-2.069,0.243-3.035,0.243
			c-1.866,0-3.319-0.332-4.318-0.985c-0.895-0.602-1.334-1.618-1.334-3.101V40.465h8.499c1.957,0,3.555-0.597,4.75-1.773
			c1.193-1.183,1.797-3.075,1.797-5.625c0-1.416-0.201-2.731-0.598-3.912c-0.375-1.123-0.786-2.095-1.22-2.889
			c-0.132-0.241-0.384-0.39-0.658-0.39h-12.57v-5.698c0-3.61-0.956-6.041-2.841-7.226C206.021,11.841,203.544,11.277,200.431,11.277
			L200.431,11.277z"/>
	</g>
	<g>
		<g>
			<path fill="#00C3A9" d="M242.972,73.854c-1.479,0-2.829-0.104-4.014-0.309c-1.217-0.204-2.262-0.625-3.103-1.25
				c-0.855-0.64-1.521-1.507-1.978-2.579c-0.456-1.084-0.677-2.445-0.677-4.16V24.94l0.31-0.054c0.732-0.129,1.818-0.313,3.254-0.55
				c1.454-0.229,2.937-0.345,4.41-0.345c1.522,0,2.835,0.099,4.013,0.303c1.203,0.198,2.25,0.619,3.107,1.251
				c0.852,0.636,1.515,1.503,1.971,2.58c0.451,1.073,0.68,2.472,0.68,4.16v40.614l-0.309,0.055
				c-0.735,0.131-1.814,0.311-3.252,0.549C245.897,73.736,244.414,73.854,242.972,73.854z M242.072,18.577
				c-2.898,0-5.258-0.904-7.013-2.688c-1.763-1.783-2.658-4.004-2.658-6.6c0-2.596,0.895-4.817,2.658-6.6
				C236.823,0.905,239.183,0,242.072,0c2.888,0,5.249,0.905,7.017,2.689c1.763,1.778,2.656,3.999,2.656,6.601
				c0,2.601-0.894,4.822-2.657,6.601C247.33,17.672,244.969,18.577,242.072,18.577z"/>
		</g>
		<g>
			<path fill="#666666" d="M242.072,0.375c2.801,0,5.051,0.863,6.75,2.578c1.701,1.716,2.548,3.829,2.548,6.336
				c0,2.508-0.847,4.62-2.548,6.336c-1.699,1.723-3.949,2.576-6.75,2.576c-2.801,0-5.051-0.853-6.746-2.576
				c-1.697-1.716-2.55-3.828-2.55-6.336c0-2.507,0.853-4.621,2.55-6.336C237.021,1.238,239.271,0.375,242.072,0.375 M241.175,24.365
				c1.462,0,2.779,0.095,3.949,0.298c1.164,0.191,2.146,0.592,2.949,1.183c0.803,0.6,1.415,1.403,1.848,2.425
				c0.433,1.03,0.65,2.364,0.65,4.013v40.3c-0.734,0.131-1.812,0.311-3.248,0.548c-1.437,0.226-2.883,0.347-4.351,0.347
				c-1.462,0-2.783-0.102-3.95-0.304c-1.165-0.195-2.149-0.591-2.943-1.181c-0.803-0.601-1.421-1.405-1.856-2.425
				c-0.433-1.031-0.647-2.359-0.647-4.013V25.255c0.731-0.128,1.816-0.312,3.25-0.549C238.259,24.479,239.709,24.365,241.175,24.365
				 M242.072-0.375c-2.993,0-5.442,0.942-7.279,2.801c-1.836,1.856-2.767,4.165-2.767,6.864c0,2.698,0.931,5.007,2.767,6.864
				c1.827,1.856,4.276,2.798,7.279,2.798c3.001,0,5.453-0.942,7.285-2.799c1.833-1.85,2.764-4.16,2.764-6.863
				c0-2.704-0.93-5.014-2.765-6.864C247.514,0.567,245.063-0.375,242.072-0.375L242.072-0.375z M241.175,23.615
				c-1.493,0-2.996,0.118-4.466,0.35c-1.442,0.239-2.53,0.423-3.263,0.551l-0.62,0.109v0.63v40.301c0,1.766,0.231,3.174,0.706,4.304
				c0.485,1.137,1.19,2.056,2.099,2.735c0.891,0.662,1.99,1.106,3.269,1.32c1.202,0.208,2.573,0.314,4.074,0.314
				c1.461,0,2.964-0.12,4.467-0.356c1.446-0.239,2.526-0.419,3.263-0.551l0.619-0.11v-0.628v-40.3c0-1.762-0.232-3.17-0.708-4.304
				c-0.484-1.141-1.187-2.061-2.091-2.735c-0.91-0.67-2.011-1.114-3.276-1.322C244.052,23.716,242.718,23.615,241.175,23.615
				L241.175,23.615z"/>
		</g>
	</g>
	<g>
		<g>
			<path fill="#00C3A9" d="M301.561,72.901c-1.466,0-2.817-0.102-4.015-0.302c-1.242-0.209-2.258-0.623-3.108-1.265
				c-0.854-0.626-1.518-1.497-1.97-2.583c-0.45-1.055-0.679-2.451-0.679-4.146V41.227c0-1.91-0.544-3.326-1.616-4.208
				c-1.093-0.896-2.61-1.351-4.509-1.351c-1.297,0-2.594,0.163-3.857,0.484c-1.191,0.306-2.198,0.739-3.068,1.319v34.452L278.466,72
				c-0.717,0.204-1.822,0.412-3.195,0.601c-1.466,0.199-2.982,0.3-4.508,0.3c-1.466,0-2.814-0.102-4.006-0.302
				c-1.232-0.207-2.28-0.633-3.114-1.265c-0.855-0.632-1.52-1.502-1.971-2.583c-0.453-1.065-0.683-2.461-0.683-4.147V34.896
				c0-1.849,0.409-3.386,1.217-4.569c0.787-1.154,1.881-2.219,3.251-3.164c2.291-1.607,5.203-2.925,8.655-3.914
				c3.445-0.994,7.332-1.498,11.551-1.498c7.585,0,13.517,1.674,17.628,4.976c4.14,3.339,6.239,8.02,6.239,13.914v31.281L309.259,72
				c-0.712,0.203-1.819,0.41-3.201,0.601C304.595,72.8,303.082,72.901,301.561,72.901z"/>
		</g>
		<g>
			<path fill="#666666" d="M285.664,22.126c7.53,0,13.331,1.631,17.394,4.894c4.061,3.275,6.099,7.813,6.099,13.621v30.998
				c-0.668,0.19-1.721,0.393-3.149,0.59c-1.434,0.195-2.918,0.297-4.446,0.297c-1.471,0-2.786-0.102-3.953-0.297
				c-1.167-0.197-2.144-0.59-2.944-1.194c-0.805-0.591-1.42-1.395-1.85-2.428c-0.434-1.018-0.65-2.356-0.65-4.002V41.227
				c0-2.036-0.586-3.538-1.753-4.498c-1.17-0.959-2.749-1.437-4.748-1.437c-1.335,0-2.65,0.165-3.949,0.496
				c-1.304,0.335-2.414,0.827-3.351,1.485v34.366c-0.667,0.19-1.713,0.393-3.144,0.59c-1.436,0.195-2.92,0.297-4.457,0.297
				c-1.463,0-2.783-0.102-3.944-0.297c-1.17-0.197-2.152-0.59-2.949-1.194c-0.8-0.591-1.42-1.395-1.851-2.428
				c-0.433-1.018-0.654-2.356-0.654-4.002V34.896c0-1.778,0.386-3.235,1.151-4.357c0.768-1.126,1.816-2.144,3.155-3.067
				c2.263-1.588,5.114-2.879,8.546-3.862C277.648,22.62,281.463,22.126,285.664,22.126 M285.664,21.376
				c-4.254,0-8.176,0.509-11.656,1.513c-3.491,1-6.441,2.336-8.769,3.969c-1.404,0.968-2.53,2.065-3.344,3.258
				c-0.851,1.247-1.282,2.855-1.282,4.78v29.708c0,1.737,0.24,3.182,0.714,4.296c0.475,1.14,1.181,2.063,2.095,2.738
				c0.875,0.664,1.979,1.114,3.271,1.331c1.213,0.204,2.582,0.307,4.069,0.307c1.542,0,3.076-0.102,4.558-0.304
				c1.411-0.194,2.504-0.4,3.248-0.612l0.545-0.155v-0.566V37.674c0.797-0.503,1.713-0.884,2.788-1.16
				c1.23-0.313,2.497-0.472,3.763-0.472c1.835,0,3.233,0.414,4.272,1.267c0.995,0.818,1.479,2.1,1.479,3.917v23.377
				c0,1.746,0.239,3.192,0.71,4.296c0.477,1.145,1.183,2.068,2.096,2.739c0.891,0.673,1.961,1.11,3.263,1.33
				c1.219,0.204,2.59,0.307,4.077,0.307c1.538,0,3.068-0.102,4.547-0.304c1.42-0.196,2.514-0.401,3.253-0.612l0.545-0.155v-0.566
				V40.641c0-6.013-2.146-10.792-6.378-14.205C299.347,23.079,293.336,21.376,285.664,21.376L285.664,21.376z"/>
		</g>
	</g>
</g>
</svg>
